<mxfile host="Electron" modified="2024-03-23T16:41:37.366Z" agent="Mozilla/5.0 (Windows NT 10.0; Win64; x64) AppleWebKit/537.36 (KHTML, like Gecko) draw.io/24.0.4 Chrome/120.0.6099.109 Electron/28.1.0 Safari/537.36" etag="wVs0o0t6FvgXpVDQInez" version="24.0.4" type="device">
  <diagram name="Page-1" id="JZyFMT-VHSWi0CG8pwOK">
    <mxGraphModel dx="1050" dy="629" grid="1" gridSize="10" guides="1" tooltips="1" connect="1" arrows="1" fold="1" page="1" pageScale="1" pageWidth="827" pageHeight="1169" math="0" shadow="0">
      <root>
        <mxCell id="0" />
        <mxCell id="1" parent="0" />
        <mxCell id="ZeTDhqO3Pv79P5UGSq5c-55" value="* commits&lt;div style=&quot;font-size: 14px;&quot;&gt;rewritten&lt;/div&gt;" style="text;html=1;align=center;verticalAlign=middle;resizable=0;points=[];autosize=1;strokeColor=none;fillColor=none;fontSize=14;" parent="1" vertex="1">
          <mxGeometry x="721" y="150.5" width="80" height="50" as="geometry" />
        </mxCell>
        <mxCell id="YVgrlLoJFylW2bB8R77U-1" value="m1" style="ellipse;whiteSpace=wrap;html=1;aspect=fixed;fillColor=#ffe6cc;strokeColor=#d79b00;strokeWidth=2;" parent="1" vertex="1">
          <mxGeometry x="40" y="129" width="40" height="40" as="geometry" />
        </mxCell>
        <mxCell id="YVgrlLoJFylW2bB8R77U-2" style="edgeStyle=orthogonalEdgeStyle;rounded=0;orthogonalLoop=1;jettySize=auto;html=1;exitX=0;exitY=0.5;exitDx=0;exitDy=0;entryX=1;entryY=0.5;entryDx=0;entryDy=0;" parent="1" source="YVgrlLoJFylW2bB8R77U-3" target="YVgrlLoJFylW2bB8R77U-1" edge="1">
          <mxGeometry relative="1" as="geometry" />
        </mxCell>
        <mxCell id="YVgrlLoJFylW2bB8R77U-3" value="m2" style="ellipse;whiteSpace=wrap;html=1;aspect=fixed;fillColor=#ffe6cc;strokeColor=#d79b00;strokeWidth=2;" parent="1" vertex="1">
          <mxGeometry x="130" y="129" width="40" height="40" as="geometry" />
        </mxCell>
        <mxCell id="YVgrlLoJFylW2bB8R77U-4" style="edgeStyle=orthogonalEdgeStyle;rounded=0;orthogonalLoop=1;jettySize=auto;html=1;exitX=0;exitY=0.5;exitDx=0;exitDy=0;entryX=1;entryY=0.5;entryDx=0;entryDy=0;" parent="1" source="YVgrlLoJFylW2bB8R77U-5" target="YVgrlLoJFylW2bB8R77U-3" edge="1">
          <mxGeometry relative="1" as="geometry" />
        </mxCell>
        <mxCell id="YVgrlLoJFylW2bB8R77U-5" value="m3" style="ellipse;whiteSpace=wrap;html=1;aspect=fixed;fillColor=#ffe6cc;strokeColor=#d79b00;strokeWidth=2;" parent="1" vertex="1">
          <mxGeometry x="220" y="129" width="40" height="40" as="geometry" />
        </mxCell>
        <mxCell id="YVgrlLoJFylW2bB8R77U-6" style="edgeStyle=orthogonalEdgeStyle;rounded=0;orthogonalLoop=1;jettySize=auto;html=1;exitX=0;exitY=0.5;exitDx=0;exitDy=0;entryX=0.5;entryY=1;entryDx=0;entryDy=0;" parent="1" source="YVgrlLoJFylW2bB8R77U-7" target="YVgrlLoJFylW2bB8R77U-3" edge="1">
          <mxGeometry relative="1" as="geometry" />
        </mxCell>
        <mxCell id="YVgrlLoJFylW2bB8R77U-7" value="f1" style="ellipse;whiteSpace=wrap;html=1;aspect=fixed;fillColor=#dae8fc;strokeColor=#6c8ebf;strokeWidth=2;" parent="1" vertex="1">
          <mxGeometry x="170" y="209" width="40" height="40" as="geometry" />
        </mxCell>
        <mxCell id="YVgrlLoJFylW2bB8R77U-8" style="edgeStyle=orthogonalEdgeStyle;rounded=0;orthogonalLoop=1;jettySize=auto;html=1;exitX=0;exitY=0.5;exitDx=0;exitDy=0;entryX=1;entryY=0.5;entryDx=0;entryDy=0;" parent="1" source="YVgrlLoJFylW2bB8R77U-9" target="YVgrlLoJFylW2bB8R77U-7" edge="1">
          <mxGeometry relative="1" as="geometry" />
        </mxCell>
        <mxCell id="YVgrlLoJFylW2bB8R77U-9" value="f2" style="ellipse;whiteSpace=wrap;html=1;aspect=fixed;fillColor=#dae8fc;strokeColor=#6c8ebf;strokeWidth=2;" parent="1" vertex="1">
          <mxGeometry x="245" y="209" width="40" height="40" as="geometry" />
        </mxCell>
        <mxCell id="YVgrlLoJFylW2bB8R77U-10" value="main" style="shape=offPageConnector;whiteSpace=wrap;html=1;rotation=0;size=0.23728813559322035;labelPosition=center;verticalLabelPosition=middle;align=center;verticalAlign=middle;textDirection=ltr;horizontal=0;strokeWidth=2;fontStyle=1;fillColor=#ffe6cc;strokeColor=#d79b00;spacingBottom=2;" parent="1" vertex="1">
          <mxGeometry x="225" y="80" width="30" height="49" as="geometry" />
        </mxCell>
        <mxCell id="YVgrlLoJFylW2bB8R77U-11" value="HEAD" style="shape=display;whiteSpace=wrap;html=1;fillColor=#e51400;fontColor=#ffffff;strokeColor=#B20000;fontStyle=1;spacingLeft=4;rotation=90;" parent="1" vertex="1">
          <mxGeometry x="240.5" y="320" width="49" height="30" as="geometry" />
        </mxCell>
        <mxCell id="YVgrlLoJFylW2bB8R77U-14" value="" style="shape=flexArrow;endArrow=classic;html=1;rounded=0;endWidth=31;endSize=15.53;width=30;fillColor=#d5e8d4;strokeColor=#82b366;strokeWidth=2;" parent="1" edge="1">
          <mxGeometry width="50" height="50" relative="1" as="geometry">
            <mxPoint x="300" y="149" as="sourcePoint" />
            <mxPoint x="475" y="148.5" as="targetPoint" />
          </mxGeometry>
        </mxCell>
        <mxCell id="YVgrlLoJFylW2bB8R77U-15" value="git rebase main" style="edgeLabel;html=1;align=center;verticalAlign=middle;resizable=0;points=[];fontSize=16;labelBackgroundColor=none;" parent="YVgrlLoJFylW2bB8R77U-14" vertex="1" connectable="0">
          <mxGeometry x="0.5225" y="2" relative="1" as="geometry">
            <mxPoint x="-55" as="offset" />
          </mxGeometry>
        </mxCell>
        <mxCell id="YVgrlLoJFylW2bB8R77U-16" value="m1" style="ellipse;whiteSpace=wrap;html=1;aspect=fixed;fillColor=#ffe6cc;strokeColor=#d79b00;strokeWidth=2;" parent="1" vertex="1">
          <mxGeometry x="500" y="129" width="40" height="40" as="geometry" />
        </mxCell>
        <mxCell id="YVgrlLoJFylW2bB8R77U-17" style="edgeStyle=orthogonalEdgeStyle;rounded=0;orthogonalLoop=1;jettySize=auto;html=1;exitX=0;exitY=0.5;exitDx=0;exitDy=0;entryX=1;entryY=0.5;entryDx=0;entryDy=0;" parent="1" source="YVgrlLoJFylW2bB8R77U-18" target="YVgrlLoJFylW2bB8R77U-16" edge="1">
          <mxGeometry relative="1" as="geometry" />
        </mxCell>
        <mxCell id="YVgrlLoJFylW2bB8R77U-18" value="m2" style="ellipse;whiteSpace=wrap;html=1;aspect=fixed;fillColor=#ffe6cc;strokeColor=#d79b00;strokeWidth=2;" parent="1" vertex="1">
          <mxGeometry x="590" y="129" width="40" height="40" as="geometry" />
        </mxCell>
        <mxCell id="YVgrlLoJFylW2bB8R77U-19" style="edgeStyle=orthogonalEdgeStyle;rounded=0;orthogonalLoop=1;jettySize=auto;html=1;exitX=0;exitY=0.5;exitDx=0;exitDy=0;entryX=1;entryY=0.5;entryDx=0;entryDy=0;" parent="1" source="YVgrlLoJFylW2bB8R77U-20" target="YVgrlLoJFylW2bB8R77U-18" edge="1">
          <mxGeometry relative="1" as="geometry" />
        </mxCell>
        <mxCell id="YVgrlLoJFylW2bB8R77U-20" value="m3" style="ellipse;whiteSpace=wrap;html=1;aspect=fixed;fillColor=#ffe6cc;strokeColor=#d79b00;strokeWidth=2;" parent="1" vertex="1">
          <mxGeometry x="680" y="129" width="40" height="40" as="geometry" />
        </mxCell>
        <mxCell id="YVgrlLoJFylW2bB8R77U-21" style="edgeStyle=orthogonalEdgeStyle;rounded=0;orthogonalLoop=1;jettySize=auto;html=1;exitX=0.5;exitY=0;exitDx=0;exitDy=0;entryX=0.5;entryY=1;entryDx=0;entryDy=0;" parent="1" source="YVgrlLoJFylW2bB8R77U-22" target="YVgrlLoJFylW2bB8R77U-20" edge="1">
          <mxGeometry relative="1" as="geometry" />
        </mxCell>
        <mxCell id="YVgrlLoJFylW2bB8R77U-22" value="f1*" style="ellipse;whiteSpace=wrap;html=1;aspect=fixed;fillColor=#dae8fc;strokeColor=#6c8ebf;strokeWidth=2;" parent="1" vertex="1">
          <mxGeometry x="680" y="199.5" width="40" height="40" as="geometry" />
        </mxCell>
        <mxCell id="YVgrlLoJFylW2bB8R77U-23" style="edgeStyle=orthogonalEdgeStyle;rounded=0;orthogonalLoop=1;jettySize=auto;html=1;exitX=0;exitY=0.5;exitDx=0;exitDy=0;entryX=1;entryY=0.5;entryDx=0;entryDy=0;" parent="1" source="YVgrlLoJFylW2bB8R77U-24" target="YVgrlLoJFylW2bB8R77U-22" edge="1">
          <mxGeometry relative="1" as="geometry" />
        </mxCell>
        <mxCell id="YVgrlLoJFylW2bB8R77U-24" value="f2*" style="ellipse;whiteSpace=wrap;html=1;aspect=fixed;fillColor=#dae8fc;strokeColor=#6c8ebf;strokeWidth=2;" parent="1" vertex="1">
          <mxGeometry x="755" y="199.5" width="40" height="40" as="geometry" />
        </mxCell>
        <mxCell id="YVgrlLoJFylW2bB8R77U-25" value="main" style="shape=offPageConnector;whiteSpace=wrap;html=1;rotation=0;size=0.23728813559322035;labelPosition=center;verticalLabelPosition=middle;align=center;verticalAlign=middle;textDirection=ltr;horizontal=0;strokeWidth=2;fontStyle=1;fillColor=#ffe6cc;strokeColor=#d79b00;spacing=2;spacingBottom=2;" parent="1" vertex="1">
          <mxGeometry x="685" y="80" width="30" height="49" as="geometry" />
        </mxCell>
        <mxCell id="YVgrlLoJFylW2bB8R77U-29" value="HEAD" style="shape=display;whiteSpace=wrap;html=1;fillColor=#e51400;fontColor=#ffffff;strokeColor=#B20000;fontStyle=1;spacingLeft=4;rotation=90;" parent="1" vertex="1">
          <mxGeometry x="750" y="309" width="49" height="30" as="geometry" />
        </mxCell>
        <mxCell id="puJELL68bOpw2IT9PIqr-1" value="feature" style="shape=offPageConnector;whiteSpace=wrap;html=1;rotation=0;textDirection=vertical-lr;size=0.23728813559322035;spacingLeft=0;spacingTop=4;spacingBottom=0;strokeWidth=2;fontStyle=1;fillColor=#dae8fc;strokeColor=#6c8ebf;flipH=0;flipV=1;spacing=2;" vertex="1" parent="1">
          <mxGeometry x="250" y="249" width="30" height="60" as="geometry" />
        </mxCell>
        <mxCell id="puJELL68bOpw2IT9PIqr-2" value="feature" style="shape=offPageConnector;whiteSpace=wrap;html=1;rotation=0;textDirection=vertical-lr;size=0.23728813559322035;spacingLeft=0;spacingTop=4;spacingBottom=0;strokeWidth=2;fontStyle=1;fillColor=#dae8fc;strokeColor=#6c8ebf;flipH=0;flipV=1;spacing=2;" vertex="1" parent="1">
          <mxGeometry x="759.5" y="239.5" width="30" height="60" as="geometry" />
        </mxCell>
      </root>
    </mxGraphModel>
  </diagram>
</mxfile>
